<svg id="Outline" height="512" viewBox="0 0 64 64" width="512" xmlns="http://www.w3.org/2000/svg"><path d="m23 20a7 7 0 0 0 4.19-1.4 9 9 0 0 0 9.62 0 6.86 6.86 0 0 0 5.32 1.3l-1 8.1h-4l.87-5.86a1 1 0 0 0 -.86-1.14 1 1 0 0 0 -1.13.85l-.88 6.15h-6.26l-.87-6.14a1 1 0 0 0 -2 .28l.85 5.86h-4l-.66-5.29a1 1 0 1 0 -2 .25l.76 6.1v3.94a1 1 0 0 0 1 1h18.05a1 1 0 0 0 0-2h-17v-2h19a.91.91 0 0 0 .37-.08.29.29 0 0 0 .12-.07.59.59 0 0 0 .19-.13.63.63 0 0 0 .1-.12l.12-.17c0-.05 0-.1.05-.16a.66.66 0 0 0 0-.15l1.24-9.92a7 7 0 0 0 -3.19-13.2 6.78 6.78 0 0 0 -1.42.15 9 9 0 0 0 -15.16 0 6.78 6.78 0 0 0 -1.42-.15 7 7 0 0 0 0 14zm0-12a5.14 5.14 0 0 1 1.59.26 1 1 0 0 0 1.2-.48 7 7 0 0 1 12.42 0 1 1 0 0 0 1.2.48 5.14 5.14 0 0 1 1.59-.26 5 5 0 0 1 0 10 4.92 4.92 0 0 1 -2.57-.73 1 1 0 0 0 -.07-1.27 1 1 0 0 0 -1.36 0 7 7 0 0 1 -9.9 0 1 1 0 0 0 -1.41 0 1 1 0 0 0 -.07 1.32 4.92 4.92 0 0 1 -2.62.68 5 5 0 0 1 0-10z"/><path d="m51.71 40.37a1 1 0 0 0 -1.42 0l-3.53 3.53-2.12-2.12 3.53-3.54a1 1 0 1 0 -1.41-1.41l-3.54 3.54-2.12-2.13 3.54-3.53a1 1 0 0 0 -1.42-1.42l-4.22 4.25-2.12 2.12a6 6 0 0 0 -1.58 5.66l-11 10a3.85 3.85 0 0 0 2.55 6.68h.15a3.82 3.82 0 0 0 2.76-1.27l10-11a6 6 0 0 0 5.66-1.58l6.37-6.36a1 1 0 0 0 -.08-1.42zm-7.78 6.36a4 4 0 0 1 -4.22.91 1 1 0 0 0 -1.09.27l-10.39 11.48a1.85 1.85 0 0 1 -1.33.61 1.94 1.94 0 0 1 -1.36-.54 1.88 1.88 0 0 1 -.54-1.36 1.85 1.85 0 0 1 .61-1.33l11.49-10.39a1 1 0 0 0 .26-1.09 4 4 0 0 1 .91-4.22l1.42-1.41 2.82 2.82 2.82 2.82z"/><path d="m39.12 54.8a1 1 0 0 0 -1.41.07 1 1 0 0 0 .07 1.42l.54.48a1.89 1.89 0 0 1 .61 1.33 1.85 1.85 0 0 1 -.55 1.36 1.88 1.88 0 0 1 -1.38.54 1.81 1.81 0 0 1 -1.33-.61l-.3-.33a1 1 0 0 0 -1.37-.06 1 1 0 0 0 -.07 1.42l.3.32a3.82 3.82 0 0 0 2.77 1.26h.1a3.85 3.85 0 0 0 2.58-6.71z"/><path d="m25 50.57a1 1 0 0 0 .74.32 1 1 0 0 0 .67-.25 1 1 0 0 0 .07-1.42l-1.19-1.31a1 1 0 0 0 -1.09-.27 4 4 0 0 1 -4.2-.91l-2.83-2.83a4 4 0 0 1 0-5.66 4.1 4.1 0 0 1 5.66 0l2.83 2.83a4 4 0 0 1 .91 4.22 1 1 0 0 0 .26 1.09l1.48 1.34a1 1 0 0 0 1.34-1.48l-1-.92a6 6 0 0 0 -1.58-5.66l-2.83-2.83a6 6 0 1 0 -8.48 8.48l2.83 2.83a6 6 0 0 0 5.66 1.58z"/></svg>