<?xml version="1.0"?>
<svg xmlns="http://www.w3.org/2000/svg" viewBox="0 0 64 64" width="512" height="512"><g id="Outline"><path d="M34,17A10.34,10.34,0,0,0,23.67,27.33V28H9a1,1,0,0,0-1,1V47a1,1,0,0,0,1,1h6a1,1,0,0,0,0-2H10V30H36V46H31a1,1,0,0,0,0,2h6a1,1,0,0,0,1-1V42h2a3,3,0,0,1,3,3v2a1,1,0,0,0,2,0V45a5,5,0,0,0-5-5h-.73a8.13,8.13,0,0,0,2.12-3H44a3,3,0,0,0,3-3V31a3,3,0,0,0-2.67-3v-.7A10.34,10.34,0,0,0,34,17ZM25.67,27.33a8.33,8.33,0,0,1,16.66,0V28h-.59a8,8,0,0,0-15.47,0h-.6ZM38,38.46V29a1,1,0,0,0-1-1H28.36A6,6,0,0,1,40,30v4A6,6,0,0,1,38,38.46ZM45,31v3a1,1,0,0,1-1,1H42V30h2A1,1,0,0,1,45,31Z"/><path d="M61,54H55.74l0-.13a39.89,39.89,0,0,1,0-23.72A4,4,0,0,0,52,25a2,2,0,0,1-2-2V19a5,5,0,0,0-5-5H38a1,1,0,0,0,0,2h7a3,3,0,0,1,3,3v4a4,4,0,0,0,4,4,1.93,1.93,0,0,1,1.58.8,2,2,0,0,1,.29,1.75A42,42,0,0,0,53.65,54H49V53a3,3,0,0,0-3-3H36a3,3,0,0,0-3,3v1H28V45a5,5,0,0,0-10,0v9H16V53a3,3,0,0,0-3-3H12a3,3,0,0,0-3,3v1H3a1,1,0,0,0-1,1v6a1,1,0,0,0,2,0V56H60v5a1,1,0,0,0,2,0V55A1,1,0,0,0,61,54ZM11,54V53a1,1,0,0,1,1-1h1a1,1,0,0,1,1,1v1Zm9,0V45a3,3,0,0,1,6,0v9Zm15,0V53a1,1,0,0,1,1-1H46a1,1,0,0,1,1,1v1Z"/><path d="M50.89,28.91a1,1,0,0,0-1.23.69,45.55,45.55,0,0,0-1.52,17,1,1,0,0,0,1,.9h.1a1,1,0,0,0,.89-1.09,43.94,43.94,0,0,1,1.45-16.28A1,1,0,0,0,50.89,28.91Z"/><path d="M26.06,11.35a1,1,0,0,0,1.88,0l3-8a1,1,0,1,0-1.88-.7L27,8.15l-2.06-5.5a1,1,0,0,0-1.88.7Z"/><path d="M36,10a1,1,0,0,1-1-1,1,1,0,0,0-2,0,3,3,0,1,0,3-3,1,1,0,1,1,1-1,1,1,0,0,0,2,0,3,3,0,1,0-3,3,1,1,0,0,1,0,2Z"/><path d="M3,8a1,1,0,0,0,0,2H20a1,1,0,0,0,1-1V3a1,1,0,0,0-1-1H3A1,1,0,0,0,3,4H14V8ZM16,4h3V8H16Z"/><path d="M61,8H52V4h9a1,1,0,0,0,0-2H44a1,1,0,0,0-1,1V9a1,1,0,0,0,1,1H61a1,1,0,0,0,0-2ZM45,4h5V8H45Z"/><path d="M61,16H53a1,1,0,0,0,0,2h8a1,1,0,0,0,0-2Z"/><path d="M61,12H56a1,1,0,0,0,0,2h5a1,1,0,0,0,0-2Z"/><path d="M3,18H9a1,1,0,0,0,0-2H3a1,1,0,0,0,0,2Z"/><path d="M3,14H18a1,1,0,0,0,0-2H3a1,1,0,0,0,0,2Z"/><path d="M19,34a1,1,0,0,0,0,2h8a1,1,0,0,0,0-2Z"/></g></svg>
