<svg xmlns="http://www.w3.org/2000/svg" width="85.087" height="85.091" viewBox="0 0 85.087 85.091">
  <g id="vs" transform="translate(-2 -1.997)">
    <path id="Path_21" data-name="Path 21" d="M44.871,17A14.663,14.663,0,0,0,30.222,31.649v.95H9.418A1.418,1.418,0,0,0,8,34.017V59.543a1.418,1.418,0,0,0,1.418,1.418h8.509a1.418,1.418,0,1,0,0-2.836H10.836V35.435H47.707v22.69H40.616a1.418,1.418,0,0,0,0,2.836h8.509a1.418,1.418,0,0,0,1.418-1.418V52.453h2.836a4.254,4.254,0,0,1,4.254,4.254v2.836a1.418,1.418,0,0,0,2.836,0V56.707a7.091,7.091,0,0,0-7.091-7.091H52.344a11.529,11.529,0,0,0,3.006-4.254h3.7a4.254,4.254,0,0,0,4.254-4.254V36.854A4.254,4.254,0,0,0,59.52,32.6v-.993A14.663,14.663,0,0,0,44.871,17ZM33.058,31.649a11.813,11.813,0,0,1,23.626,0v.95h-.837a11.345,11.345,0,0,0-21.938,0h-.851ZM50.543,47.433V34.017A1.418,1.418,0,0,0,49.125,32.6H36.873a8.509,8.509,0,0,1,16.507,2.836v5.672a8.509,8.509,0,0,1-2.836,6.325ZM60.47,36.854v4.254a1.418,1.418,0,0,1-1.418,1.418H56.216V35.435h2.836A1.418,1.418,0,0,1,60.47,36.854Z" transform="translate(2.509 6.273)" fill="#40d992"/>
    <path id="Path_22" data-name="Path 22" d="M85.668,70.724H78.209V70.54a56.568,56.568,0,0,1,0-33.638,5.672,5.672,0,0,0-5.3-7.3,2.836,2.836,0,0,1-2.836-2.836V21.091A7.091,7.091,0,0,0,62.979,14H53.052a1.418,1.418,0,1,0,0,2.836h9.927a4.254,4.254,0,0,1,4.254,4.254v5.672a5.672,5.672,0,0,0,5.672,5.672,2.737,2.737,0,0,1,2.241,1.134,2.836,2.836,0,0,1,.411,2.482,59.561,59.561,0,0,0-.312,34.673H68.651V69.306A4.254,4.254,0,0,0,64.4,65.052H50.216a4.254,4.254,0,0,0-4.254,4.254v1.418H38.871V57.961a7.091,7.091,0,0,0-14.181,0V70.724H21.854V69.306A4.254,4.254,0,0,0,17.6,65.052H16.181a4.254,4.254,0,0,0-4.254,4.254v1.418H3.418A1.418,1.418,0,0,0,2,72.142v8.509a1.418,1.418,0,0,0,2.836,0V73.561H84.25v7.091a1.418,1.418,0,0,0,2.836,0V72.142A1.418,1.418,0,0,0,85.668,70.724Zm-70.905,0V69.306a1.418,1.418,0,0,1,1.418-1.418H17.6a1.418,1.418,0,0,1,1.418,1.418v1.418Zm12.763,0V57.961a4.254,4.254,0,1,1,8.509,0V70.724Zm21.272,0V69.306a1.418,1.418,0,0,1,1.418-1.418H64.4a1.418,1.418,0,0,1,1.418,1.418v1.418Z" transform="translate(0 5.019)" fill="#40d992"/>
    <path id="Path_23" data-name="Path 23" d="M52.134,28.925a1.418,1.418,0,0,0-1.744.978,64.6,64.6,0,0,0-2.156,24.108,1.418,1.418,0,0,0,1.418,1.276h.142a1.418,1.418,0,0,0,1.262-1.546,62.312,62.312,0,0,1,2.056-23.087A1.418,1.418,0,0,0,52.134,28.925Z" transform="translate(19.198 11.237)" fill="#40d992"/>
    <path id="Path_24" data-name="Path 24" d="M27.341,15.261a1.418,1.418,0,0,0,2.666,0L34.261,3.916A1.422,1.422,0,1,0,31.6,2.923l-2.921,7.8-2.921-7.8a1.422,1.422,0,1,0-2.666.993Z" transform="translate(8.779 0)" fill="#40d992"/>
    <path id="Path_25" data-name="Path 25" d="M37.254,13.345a1.418,1.418,0,0,1-1.418-1.418,1.418,1.418,0,0,0-2.836,0,4.254,4.254,0,1,0,4.254-4.254,1.418,1.418,0,1,1,1.418-1.418,1.418,1.418,0,0,0,2.836,0,4.254,4.254,0,1,0-4.254,4.254,1.418,1.418,0,0,1,0,2.836Z" transform="translate(12.961 0.001)" fill="#40d992"/>
    <path id="Path_26" data-name="Path 26" d="M3.418,10.509a1.418,1.418,0,0,0,0,2.836H27.526a1.418,1.418,0,0,0,1.418-1.418V3.418A1.418,1.418,0,0,0,27.526,2H3.418a1.418,1.418,0,0,0,0,2.836h15.6v5.672ZM21.854,4.836h4.254v5.672H21.854Z" transform="translate(0 0.001)" fill="#40d992"/>
    <path id="Path_27" data-name="Path 27" d="M68.526,10.509H55.763V4.836H68.526a1.418,1.418,0,0,0,0-2.836H44.418A1.418,1.418,0,0,0,43,3.418v8.509a1.418,1.418,0,0,0,1.418,1.418H68.526a1.418,1.418,0,0,0,0-2.836ZM45.836,4.836h7.091v5.672H45.836Z" transform="translate(17.142 0.001)" fill="#40d992"/>
    <path id="Path_28" data-name="Path 28" d="M64.763,16H53.418a1.418,1.418,0,1,0,0,2.836H64.763a1.418,1.418,0,0,0,0-2.836Z" transform="translate(20.905 5.855)" fill="#40d992"/>
    <path id="Path_29" data-name="Path 29" d="M63.509,12H56.418a1.418,1.418,0,1,0,0,2.836h7.091a1.418,1.418,0,0,0,0-2.836Z" transform="translate(22.16 4.182)" fill="#40d992"/>
    <path id="Path_30" data-name="Path 30" d="M3.418,18.836h8.509a1.418,1.418,0,1,0,0-2.836H3.418a1.418,1.418,0,1,0,0,2.836Z" transform="translate(0 5.855)" fill="#40d992"/>
    <path id="Path_31" data-name="Path 31" d="M3.418,14.836H24.69a1.418,1.418,0,1,0,0-2.836H3.418a1.418,1.418,0,0,0,0,2.836Z" transform="translate(0 4.182)" fill="#40d992"/>
    <path id="Path_32" data-name="Path 32" d="M19.418,34a1.418,1.418,0,1,0,0,2.836H30.763a1.418,1.418,0,1,0,0-2.836Z" transform="translate(6.69 13.381)" fill="#40d992"/>
  </g>
</svg>
